<svg xmlns="http://www.w3.org/2000/svg" width="150" height="150" fill="none"><style>@media (prefers-color-scheme:dark){.a{fill:#fff}}</style><path fill="#0F172A" d="M21.808 114V10.32h18.944v90.624H65.84V114zm80.529 1.408q-11.392 0-17.92-4.48-6.4-4.48-8.96-12.16-2.56-7.808-2.56-17.92V43.856q0-10.624 2.56-18.432t8.96-12.032q6.528-4.224 17.92-4.224 10.752 0 16.768 3.712 6.144 3.584 8.704 10.368t2.56 15.744v8.704h-18.176v-8.96q0-4.352-.512-7.936-.384-3.585-2.432-5.632-1.92-2.175-6.784-2.176-4.864 0-7.168 2.304-2.176 2.175-2.816 6.016-.64 3.712-.64 8.448v45.056q0 5.633.896 9.344.896 3.584 3.2 5.504 2.431 1.792 6.528 1.792 4.736 0 6.656-2.176 2.048-2.304 2.56-6.016t.512-8.32V75.6h18.176v8.32q0 9.216-2.432 16.384-2.432 7.04-8.576 11.136-6.016 3.968-17.024 3.968M14 127h119v14H14z" class="a"/></svg>